<mxfile host="Electron" modified="2023-08-19T23:52:41.028Z" agent="Mozilla/5.0 (Windows NT 10.0; Win64; x64) AppleWebKit/537.36 (KHTML, like Gecko) draw.io/21.6.8 Chrome/114.0.5735.289 Electron/25.5.0 Safari/537.36" etag="1te9MxtaXlcbdMXdh5r7" version="21.6.8" type="device">
  <diagram name="Page-1" id="XkPA3Y4uYkqNGSzOUJGO">
    <mxGraphModel dx="2074" dy="1204" grid="1" gridSize="10" guides="1" tooltips="1" connect="1" arrows="1" fold="1" page="1" pageScale="1" pageWidth="850" pageHeight="1100" math="0" shadow="0">
      <root>
        <mxCell id="0" />
        <mxCell id="1" parent="0" />
        <mxCell id="zHzo4ZDpaftSCfgucNee-1" value="Player Data&lt;br&gt;(Canada West)" style="ellipse;shape=cloud;whiteSpace=wrap;html=1;" vertex="1" parent="1">
          <mxGeometry x="406" y="200" width="135" height="90" as="geometry" />
        </mxCell>
        <mxCell id="zHzo4ZDpaftSCfgucNee-2" value="" style="endArrow=classic;html=1;rounded=0;exitX=0.55;exitY=0.95;exitDx=0;exitDy=0;exitPerimeter=0;" edge="1" parent="1" source="zHzo4ZDpaftSCfgucNee-1">
          <mxGeometry width="50" height="50" relative="1" as="geometry">
            <mxPoint x="346" y="600" as="sourcePoint" />
            <mxPoint x="480" y="470" as="targetPoint" />
          </mxGeometry>
        </mxCell>
        <mxCell id="zHzo4ZDpaftSCfgucNee-3" value="Scraped &amp;amp; Formatted" style="edgeLabel;html=1;align=center;verticalAlign=middle;resizable=0;points=[];" vertex="1" connectable="0" parent="zHzo4ZDpaftSCfgucNee-2">
          <mxGeometry x="-0.0339" y="-3" relative="1" as="geometry">
            <mxPoint as="offset" />
          </mxGeometry>
        </mxCell>
        <mxCell id="zHzo4ZDpaftSCfgucNee-4" value="Mongodb&lt;br&gt;database" style="shape=cylinder3;whiteSpace=wrap;html=1;boundedLbl=1;backgroundOutline=1;size=15;" vertex="1" parent="1">
          <mxGeometry x="436" y="470" width="80" height="106.67" as="geometry" />
        </mxCell>
        <mxCell id="zHzo4ZDpaftSCfgucNee-5" value="" style="html=1;verticalLabelPosition=bottom;align=center;labelBackgroundColor=#ffffff;verticalAlign=top;strokeWidth=2;strokeColor=#000103;shadow=0;dashed=0;shape=mxgraph.ios7.icons.reload;" vertex="1" parent="1">
          <mxGeometry x="543" y="360" width="24" height="27" as="geometry" />
        </mxCell>
        <mxCell id="zHzo4ZDpaftSCfgucNee-6" value="Automatic&lt;br&gt;refresh?" style="text;html=1;align=center;verticalAlign=middle;resizable=0;points=[];autosize=1;strokeColor=none;fillColor=none;" vertex="1" parent="1">
          <mxGeometry x="564" y="353.5" width="80" height="40" as="geometry" />
        </mxCell>
        <mxCell id="zHzo4ZDpaftSCfgucNee-7" value="" style="endArrow=classic;html=1;rounded=0;" edge="1" parent="1">
          <mxGeometry width="50" height="50" relative="1" as="geometry">
            <mxPoint x="634" y="360" as="sourcePoint" />
            <mxPoint x="684" y="310" as="targetPoint" />
          </mxGeometry>
        </mxCell>
        <mxCell id="zHzo4ZDpaftSCfgucNee-8" value="crontab" style="ellipse;shape=cloud;whiteSpace=wrap;html=1;" vertex="1" parent="1">
          <mxGeometry x="654" y="240" width="120" height="80" as="geometry" />
        </mxCell>
        <mxCell id="zHzo4ZDpaftSCfgucNee-9" value="OR??" style="text;html=1;align=center;verticalAlign=middle;resizable=0;points=[];autosize=1;strokeColor=none;fillColor=none;" vertex="1" parent="1">
          <mxGeometry x="689" y="338" width="50" height="30" as="geometry" />
        </mxCell>
        <mxCell id="zHzo4ZDpaftSCfgucNee-10" value="End-user" style="sketch=0;outlineConnect=0;fontColor=#232F3E;gradientColor=none;fillColor=#232F3D;strokeColor=none;dashed=0;verticalLabelPosition=bottom;verticalAlign=top;align=center;html=1;fontSize=12;fontStyle=0;aspect=fixed;pointerEvents=1;shape=mxgraph.aws4.user;" vertex="1" parent="1">
          <mxGeometry x="210" y="484.34000000000003" width="78" height="78" as="geometry" />
        </mxCell>
        <mxCell id="zHzo4ZDpaftSCfgucNee-12" value="" style="endArrow=classic;startArrow=classic;html=1;rounded=0;entryX=0;entryY=0.5;entryDx=0;entryDy=0;entryPerimeter=0;" edge="1" parent="1" source="zHzo4ZDpaftSCfgucNee-10" target="zHzo4ZDpaftSCfgucNee-4">
          <mxGeometry width="50" height="50" relative="1" as="geometry">
            <mxPoint x="340" y="540" as="sourcePoint" />
            <mxPoint x="390" y="490" as="targetPoint" />
          </mxGeometry>
        </mxCell>
      </root>
    </mxGraphModel>
  </diagram>
</mxfile>
